<svg width="16" height="16" viewBox="0 0 16 16" fill="none" xmlns="http://www.w3.org/2000/svg">
<path d="M1.03073 8.70332C0.92333 8.62021 0.836393 8.51361 0.77658 8.3917C0.716768 8.26978 0.685669 8.13579 0.685669 7.99999C0.685669 7.86419 0.716768 7.7302 0.77658 7.60828C0.836393 7.48636 0.92333 7.37976 1.03073 7.29666C2.45632 6.19372 4.04819 5.32443 5.74673 4.72132L6.05739 4.61132C6.63739 4.40466 7.25073 4.79732 7.32873 5.39599C7.42073 6.09599 7.47539 6.80866 7.49139 7.52266C7.54676 7.43599 7.61668 7.35953 7.69806 7.29666C9.12345 6.19379 10.7151 5.3245 12.4134 4.72132L12.7241 4.61132C13.3041 4.40466 13.9174 4.79732 13.9954 5.39599C14.22 7.12472 14.22 8.87526 13.9954 10.604C13.9167 11.2027 13.3041 11.5947 12.7241 11.3893L12.4134 11.2787C10.7151 10.6755 9.12345 9.80619 7.69806 8.70332C7.61659 8.64054 7.54666 8.56406 7.49139 8.47732C7.47511 9.1886 7.42081 9.89851 7.32873 10.604C7.25006 11.2027 6.63739 11.5947 6.05739 11.3893L5.74673 11.2787C4.04842 10.6755 2.45678 9.80619 1.03139 8.70332" fill="#545454"/>
</svg>
