<svg width="100" height="28" viewBox="0 0 100 28" fill="none" xmlns="http://www.w3.org/2000/svg">
<path fill-rule="evenodd" clip-rule="evenodd" d="M53.873 8.50162L54.9318 8.26831L56.2924 8.1223L58.0312 8.26825C58.5604 8.29737 58.938 8.50162 59.1647 8.73499C59.3162 8.93924 59.4671 9.17297 59.5429 9.52282V10.4567L59.0895 13.2292C58.9379 13.5503 58.9379 13.8128 58.9379 13.9588L59.0895 14.5718H56.67L56.5191 14.2507V13.8128C56.1409 14.1338 55.7628 14.3384 55.3852 14.4841C55.007 14.63 54.5536 14.7175 53.873 14.7175C53.0414 14.7175 52.5123 14.5424 52.1348 14.1924C51.7566 13.8422 51.6057 13.4629 51.7566 12.9376C51.9075 12.4414 51.9832 12.062 52.3614 11.7701C52.7396 11.4198 53.4196 11.1865 54.1754 11.0405L56.1409 10.632L57.0482 10.3984C57.1992 10.0484 57.1992 9.87332 57.0482 9.75648C56.8973 9.61053 56.67 9.58141 56.4433 9.58141C56.0658 9.58141 55.6876 9.61053 55.3852 9.75648C55.3094 9.87332 55.007 10.0484 54.9318 10.3109L52.5123 10.0485C52.6639 9.66883 52.8905 9.37716 53.1172 9.14379L53.873 8.50162ZM51.0008 10.632L50.2444 14.5718H47.7504L48.3547 10.9822C48.5061 10.6903 48.5061 10.4864 48.3547 10.3401C48.2037 10.1067 48.128 10.0193 47.7504 10.0193C47.448 10.0193 47.2207 10.1067 46.994 10.3401C46.8431 10.5446 46.6916 10.8946 46.6159 11.3322L45.9358 14.5718H43.4412L44.0458 11.1282C44.197 10.8363 44.197 10.632 44.0458 10.5447C44.0458 10.3984 44.0458 10.2527 43.9703 10.165L43.4412 10.0193C43.2142 10.0193 42.9121 10.1067 42.6851 10.3401C42.4585 10.5446 42.307 10.8946 42.156 11.3616L41.5512 14.5718H39.0565L40.2663 8.26825H42.6851L42.4585 9.17291C42.8363 8.79359 43.29 8.50162 43.6679 8.35567C44.0458 8.21001 44.4237 8.1223 44.9531 8.1223C45.4822 8.1223 45.8601 8.21001 46.0868 8.41391C46.4649 8.55992 46.6159 8.85188 46.6916 9.17291C47.2207 8.79359 47.5989 8.50162 47.9765 8.35567C48.3547 8.21001 48.7328 8.1223 49.262 8.1223C49.8668 8.1223 50.396 8.29737 50.7736 8.73499C51.1517 9.14373 51.1517 9.75654 51.0008 10.632ZM56.8215 11.6241L55.6876 11.9161C55.1585 12.062 54.7803 12.1494 54.6294 12.2954L54.4021 12.733C54.2511 12.9376 54.4021 13.0835 54.5537 13.2292C54.6294 13.3169 54.7803 13.3752 55.007 13.3752C55.3852 13.3752 55.6876 13.3169 55.9143 13.1709C56.1409 13.025 56.4434 12.879 56.5191 12.733C56.67 12.5291 56.67 12.2954 56.8215 11.9452V11.6242V11.6241ZM60.2986 14.5718L61.4326 8.26825H63.852L63.6248 9.31892C64.003 8.88094 64.4569 8.58934 64.8345 8.41391C65.2127 8.21001 65.7417 8.1223 66.2708 8.1223C66.8757 8.1223 67.4048 8.29737 67.783 8.73499C68.1606 9.14373 68.1606 9.75654 68.0097 10.6029L67.2533 14.5718H64.7587L65.3636 11.1282C65.5151 10.7486 65.3636 10.4567 65.2127 10.2527C65.1369 10.1067 64.986 10.0193 64.7587 10.0193C64.3811 10.0193 64.0787 10.1067 63.852 10.3401C63.6248 10.6029 63.4738 10.9822 63.3223 11.5659L62.869 14.5718H60.2986ZM99.1547 21.1719C99.0766 21.2861 98.9775 21.391 98.8523 21.4878C98.4741 21.7803 98.0965 21.926 97.4916 21.926C96.8868 21.926 96.5086 21.7803 96.131 21.5461C95.7528 21.2838 95.4504 20.9924 95.3746 20.5543L96.3577 20.3211C96.5086 20.5543 96.5844 20.6999 96.8868 20.8456C96.9626 20.9924 97.265 21.0507 97.6426 21.0507C97.7183 21.0507 98.0207 20.9924 98.0965 20.9039C98.2475 20.8165 98.2475 20.6708 98.2475 20.4669C98.2475 20.2337 98.0207 20.0286 97.4916 19.8247L97.265 19.7373C96.8868 19.5916 96.5086 19.3865 96.3577 19.2117C96.131 18.9494 95.9795 18.7152 95.9795 18.4238C95.9795 17.9857 96.131 17.636 96.5086 17.3446C96.8868 17.1104 97.265 16.9647 97.7183 16.9647C98.0965 16.9647 98.4741 17.0521 98.8523 17.3144C98.9607 17.3819 99.062 17.4495 99.1547 17.5183V21.1719ZM99.1547 18.2665L98.6256 18.4238C98.6256 18.1907 98.4741 18.0439 98.3989 17.9274C98.2474 17.7817 98.0207 17.7525 97.7183 17.7525C97.4916 17.7525 97.3401 17.7817 97.265 17.8982L97.1135 18.2782C97.1135 18.5112 97.3401 18.7152 97.8698 18.9203L98.2474 19.066C98.6256 19.2117 98.8523 19.3574 99.1547 19.5916V18.2665ZM95.4504 17.8399H93.1824L92.9558 18.9494H94.9971L94.8455 19.7373H92.8048L92.5782 20.9633H95.0722L94.997 21.8386H91.4443L92.3509 17.0521H95.6013L95.4504 17.8399ZM91.2927 17.0521L90.5369 21.8386H89.7054L88.1932 18.3365L87.5126 21.8386H86.7569L87.5126 17.0521H88.5714L90.083 20.2337L90.5369 17.0521H91.2927ZM84.4137 20.9633L84.2622 21.8386H81.0876L81.8434 17.0521H82.9774L82.2216 20.9633H84.4137ZM84.6404 21.8386L85.5477 17.0521H86.6817L85.7744 21.8386H84.6404ZM81.0119 18.4238C81.0119 18.7747 80.8609 19.0077 80.7094 19.2408C80.4827 19.503 80.256 19.6499 79.9536 19.7373L80.4827 21.8386H79.4997L78.9706 19.883H77.9882L77.61 21.8386H76.7032L77.459 17.0521H79.3488C79.8778 17.0521 80.256 17.1687 80.6336 17.4029C80.861 17.636 81.0118 17.9857 81.0118 18.4239L81.0119 18.4238ZM79.7269 17.9274C79.5754 17.8399 79.3488 17.7817 79.1221 17.7817H78.3657L78.0639 19.1534H78.9706C79.1978 19.1534 79.4997 19.0951 79.5754 18.9494C79.727 18.8027 79.8779 18.6569 79.8779 18.4238C79.8779 18.2199 79.8779 18.0742 79.7269 17.9274ZM76.5517 17.0521L75.7202 21.8386H74.5862L75.4177 17.0521H76.5517ZM72.7722 17.9857L71.9401 19.883H73.0747L72.7722 17.9857ZM73.528 17.0521L74.2838 21.8386H73.3014L73.1498 20.6708H71.6383L71.0334 21.8386H70.2776L72.3941 17.0521H73.528ZM65.5151 19.7373L65.1369 21.8386H64.0787L64.8345 17.0521H65.8927L65.5909 18.9203H67.2533L67.4801 17.0521H68.614L67.783 21.8386H66.7242L67.0266 19.7373H65.5151ZM63.2472 17.3144C63.6248 17.5486 63.7005 17.7817 63.852 18.1324L62.9447 18.4238C62.8689 18.1907 62.718 18.0439 62.5665 17.9274C62.4913 17.7817 62.1883 17.7525 61.9617 17.7525L61.4326 17.8982L61.3574 18.2782C61.3574 18.5112 61.5841 18.7152 62.1132 18.9203L62.4913 19.066C62.869 19.2117 63.2472 19.3574 63.3223 19.5916C63.4739 19.8247 63.6248 20.0869 63.6248 20.3794C63.6248 20.8165 63.4738 21.1964 63.0956 21.4878C62.718 21.7803 62.3398 21.926 61.735 21.926C61.2059 21.926 60.6768 21.7803 60.2986 21.5461C59.921 21.2838 59.8453 20.9924 59.6938 20.5543L60.601 20.3211C60.6768 20.5543 60.8277 20.6999 61.055 20.8456C61.2059 20.9924 61.4326 21.0507 61.8107 21.0507C61.9617 21.0507 62.1883 20.9924 62.3398 20.9039C62.4914 20.8165 62.5666 20.6708 62.5666 20.4669C62.5666 20.2337 62.3398 20.0286 61.735 19.8247L61.4326 19.7373C61.055 19.5916 60.6768 19.3865 60.601 19.2117C60.4501 18.9494 60.2986 18.7152 60.2986 18.4238C60.2986 17.9857 60.4501 17.636 60.6768 17.3446C61.055 17.1104 61.4326 16.9647 61.9617 16.9647C62.3398 16.9647 62.869 17.0521 63.2472 17.3144ZM59.6938 17.8399H57.4264L57.1991 18.9494H59.1647L59.0895 19.7373H57.0482L56.8973 20.9633H59.3162L59.1646 21.8386H55.6876L56.5191 17.0521H59.8453L59.6937 17.8399H59.6938ZM55.3852 19.2117C55.3852 19.6499 55.3094 20.0869 55.1584 20.4669C55.007 20.8456 54.7803 21.1381 54.4021 21.4003C54.2511 21.5461 54.0245 21.6929 53.7978 21.722L53.0414 21.8386H51.0008L51.7566 17.0521H53.2681L53.873 17.1104L54.4021 17.2561C54.7803 17.4029 55.007 17.636 55.1585 17.9857C55.3094 18.3365 55.3852 18.7152 55.3852 19.2117ZM53.2681 17.9274H52.7396L52.1348 20.9633H52.8905C53.2681 20.9633 53.6463 20.8165 53.873 20.5251C54.1754 20.1754 54.2512 19.7373 54.2512 19.2117C54.2512 18.7746 54.1754 18.4821 54.0245 18.2199C53.873 18.0439 53.6463 17.9274 53.2681 17.9274ZM46.6916 21.5461L48.8838 17.0521H50.0178L50.7736 21.8386H49.7153L49.6401 20.6708H47.9765L47.448 21.8386H43.5924L44.4236 17.0521H45.4822L44.8018 20.9633H46.8431L46.6916 21.5461ZM49.262 17.9857L48.3546 19.883H49.4886L49.262 17.9857ZM26.6589 5.875H31.9506C32.8579 5.875 33.4625 6.07931 33.8407 6.51717C34.2185 6.95479 34.521 7.42189 34.3697 8.0637C34.2185 8.58934 33.9919 9.02696 33.6137 9.37716C33.2358 9.61053 32.8579 9.81478 32.4798 9.96073C33.0846 10.1067 33.4625 10.3401 33.7649 10.7486C33.9919 11.0696 34.1428 11.5659 33.9919 12.0911C33.8407 12.5291 33.7649 12.9667 33.387 13.3169C33.0846 13.6668 32.7067 13.9588 32.3285 14.1924C32.1019 14.3384 31.724 14.4258 31.1948 14.4841L29.9851 14.5718H25.0713L26.6589 5.87506V5.875ZM36.4865 5.875H39.0565L38.7541 7.53843H36.2594L36.4864 5.87506L36.4865 5.875ZM29.2293 7.62608L28.9269 9.28945H30.2118C30.59 9.28945 30.9678 9.23121 31.1191 9.08549C31.3458 8.9393 31.497 8.70587 31.497 8.44338C31.5728 8.21001 31.497 8.0054 31.3458 7.85945C31.1948 7.71386 30.8166 7.62614 30.4388 7.62614H29.2293L29.2293 7.62608ZM28.3221 12.733H29.6827C30.2118 12.733 30.59 12.6456 30.8166 12.4414C30.9679 12.2954 31.1191 12.0911 31.1948 11.7992C31.3458 11.5659 31.1948 11.3322 31.119 11.1865C30.9679 11.0405 30.59 10.9237 30.0608 10.9237H28.549L28.3221 12.733ZM36.1083 8.26825H38.6786L37.3935 14.5718H34.899L36.1084 8.26825H36.1083ZM42.6851 17.3447C43.063 17.6069 43.2142 17.9857 43.29 18.4238L42.4585 18.6278C42.3069 18.3656 42.156 18.1907 42.0806 18.0439C41.929 17.8982 41.7024 17.7817 41.4003 17.7817L41.0221 17.9274L40.6442 18.3365C40.5684 18.5113 40.4174 18.7746 40.4174 19.066L40.2663 19.9412C40.2663 20.2628 40.4175 20.5543 40.5684 20.7582C40.6442 20.9924 40.7954 21.109 41.1733 21.109C41.4003 21.109 41.7024 20.9924 41.7779 20.8165C41.9291 20.6708 42.0806 20.3794 42.0806 20.0286H41.1733L41.3245 19.2991H43.2142L42.8363 21.8386H42.307L42.156 21.2838C42.0806 21.4878 41.9291 21.6335 41.7024 21.722C41.4003 21.8677 41.1733 21.926 40.9466 21.926C40.4175 21.926 40.0393 21.722 39.6614 21.3421C39.2835 20.9633 39.1323 20.4669 39.1323 19.8247L39.4344 18.6278C39.5102 18.2199 39.6614 17.8982 40.0393 17.6069L40.6442 17.1687C40.9466 17.023 41.1733 16.9647 41.5512 16.9647C41.9291 16.9647 42.307 17.1104 42.6851 17.3446V17.3447ZM38.9053 17.0521L37.9981 21.8386H37.2423L35.6549 18.3365L34.9747 21.8385H34.2185L35.1255 17.0521H36.1083L37.5447 20.2337L37.9981 17.0521H38.9053ZM32.4798 17.9857L31.5728 19.883H32.7067L32.4798 17.9857ZM29.8339 17.3446C30.0608 17.5486 30.2118 17.8399 30.2118 18.2199C30.2118 18.5112 30.0608 18.7746 29.9851 18.9494C29.6827 19.1534 29.456 19.2991 29.2293 19.3574C29.456 19.4448 29.6072 19.5916 29.6827 19.7956C29.8339 19.9704 29.9851 20.2337 29.9851 20.4669C29.9851 20.9039 29.8339 21.2547 29.6072 21.4878C29.2293 21.722 28.8512 21.8386 28.1709 21.8386H25.9029L26.6589 17.0521H28.549C29.2293 17.0521 29.6072 17.1687 29.8339 17.3446ZM29.2293 18.3656C29.2293 18.1907 29.0778 18.044 28.9269 17.9857C28.8512 17.8982 28.7002 17.8399 28.4733 17.8399H27.5663L27.4151 19.0077H28.3221C28.549 19.0077 28.8512 18.9494 28.9269 18.8026C29.0778 18.7152 29.2293 18.5695 29.2293 18.3656ZM28.0954 19.679H27.3394L27.0368 21.0507H28.0954C28.3221 21.0507 28.549 20.9924 28.7003 20.8455C28.8512 20.6999 28.9269 20.5542 28.9269 20.3211C28.9269 20.116 28.8512 19.9703 28.7002 19.8829C28.549 19.7372 28.4733 19.679 28.0954 19.679ZM29.8339 21.8384L32.1019 17.0521H33.2358L33.9919 21.8385H33.0089L32.8579 20.6708H31.3458L30.7412 21.8385L29.8339 21.8384Z" fill="#00803E"/>
<path fill-rule="evenodd" clip-rule="evenodd" d="M3.13749 6.95725C4.04464 6.00396 5.15331 5.30351 6.31254 4.77834C7.57238 4.25292 8.83237 4 10.1931 4C11.5032 4 12.7632 4.25292 14.0232 4.77834C15.2328 5.30355 16.291 6.00396 17.2486 6.95729C18.1557 7.85234 18.811 8.92223 19.3149 10.1284C19.8187 11.3543 20.0707 12.6576 20.0707 14.0196C20.0707 15.3424 19.8187 16.6461 19.3149 17.9102C18.811 19.1168 18.1557 20.1479 17.2486 21.0818C16.291 22.0351 15.2328 22.7359 14.0232 23.2215C12.7632 23.7475 11.5032 24 10.1931 24C8.83237 24 7.57234 23.7475 6.3125 23.2215C5.15331 22.7359 4.0446 22.0351 3.13749 21.0817C2.17991 20.1479 1.52473 19.1168 1.02087 17.9102C0.51686 16.6461 0.264893 15.3424 0.264893 14.0196C0.264893 12.6576 0.51682 11.3543 1.02087 10.1284C1.52473 8.92223 2.17991 7.85234 3.13749 6.95729V6.95725ZM12.5113 13.6886L13.5192 14.6617C13.7713 14.9337 14.2249 14.9337 14.6279 14.6617L16.8958 13.144L16.291 12.5993H19.5165L14.7287 16.0238C14.124 16.3539 13.7208 16.3928 13.3681 16.1015C12.9648 15.8094 12.7632 15.6345 12.7632 15.6734C12.4608 15.2453 12.0072 15.187 11.4528 15.4783L8.47944 17.6772H3.18801L8.22752 13.8832L0.86959 13.9222L1.87766 12.9493H11.2009C11.705 12.891 12.108 13.1439 12.5113 13.6886V13.6886Z" fill="#E51C24"/>
</svg>
