<svg width="13" height="13" viewBox="0 0 13 13" fill="none" xmlns="http://www.w3.org/2000/svg">
<path fill-rule="evenodd" clip-rule="evenodd" d="M0 1.02967C0 0.756582 0.114137 0.494682 0.317301 0.301582C0.520465 0.108482 0.796015 0 1.08333 0H11.9167C12.204 0 12.4795 0.108482 12.6827 0.301582C12.8859 0.494682 13 0.756582 13 1.02967V2.46159C12.9999 2.82567 12.8477 3.17482 12.5768 3.43222L8.66667 7.14863V12.2448C8.66669 12.3735 8.63208 12.5001 8.56614 12.6125C8.5002 12.725 8.40512 12.8195 8.28991 12.8872C8.17471 12.9549 8.04322 12.9935 7.90792 12.9992C7.77263 13.005 7.63802 12.9778 7.51689 12.9203L4.83239 11.6448C4.68243 11.5736 4.55632 11.464 4.46817 11.3285C4.38003 11.1929 4.33334 11.0367 4.33333 10.8774V7.14863L0.423222 3.43222C0.152318 3.17482 8.18096e-05 2.82567 0 2.46159V1.02967Z" fill="#FF690F"/>
</svg>
