<svg width="20" height="20" viewBox="0 0 20 20" fill="none" xmlns="http://www.w3.org/2000/svg">
<path d="M10 2C8.93913 2 7.92172 2.42143 7.17157 3.17157C6.42143 3.92172 6 4.93913 6 6C6 7.06087 6.42143 8.07828 7.17157 8.82843C7.92172 9.57857 8.93913 10 10 10C11.0609 10 12.0783 9.57857 12.8284 8.82843C13.5786 8.07828 14 7.06087 14 6C14 4.93913 13.5786 3.92172 12.8284 3.17157C12.0783 2.42143 11.0609 2 10 2ZM5.009 11C4.7456 10.9988 4.48456 11.0497 4.24087 11.1496C3.99718 11.2496 3.77564 11.3968 3.58896 11.5826C3.40229 11.7684 3.25417 11.9893 3.1531 12.2325C3.05203 12.4758 3 12.7366 3 13C3 14.691 3.833 15.966 5.135 16.797C6.417 17.614 8.145 18 10 18C11.855 18 13.583 17.614 14.865 16.797C16.167 15.967 17 14.69 17 13C17 12.4696 16.7893 11.9609 16.4142 11.5858C16.0391 11.2107 15.5304 11 15 11H5.009Z" fill="#699BF7"/>
</svg>
