<?xml version="1.0"?>
<svg xmlns="http://www.w3.org/2000/svg" xmlns:xlink="http://www.w3.org/1999/xlink" xmlns:svgjs="http://svgjs.com/svgjs" version="1.1" width="512" height="512" x="0" y="0" viewBox="0 0 501.536 501.536" style="enable-background:new 0 0 512 512" xml:space="preserve" class=""><g><g xmlns="http://www.w3.org/2000/svg" id="XMLID_254_"><path id="XMLID_275_" d="m118.669 68.985-93.555 48.354 98.236 47.902 93.645-47.178z" fill="#ffffff" data-original="#000000" style="" class=""/><path id="XMLID_274_" d="m10.768 293.316v105.221l97.449 44.532-.001-104.144z" fill="#ffffff" data-original="#000000" style="" class=""/><path id="XMLID_273_" d="m10.768 143.398v116.598l97.448 45.823v-116.894z" fill="#ffffff" data-original="#000000" style="" class=""/><path id="XMLID_272_" d="m138.217 456.803 97.55 44.733.001-103.078-97.551-45.533z" fill="#ffffff" data-original="#000000" style="" class=""/><path id="XMLID_271_" d="m392.678 189.194v116.895l98.09-45.649v-117.609z" fill="#ffffff" data-original="#000000" style="" class=""/><path id="XMLID_270_" d="m249.928 101.471 96.837-48.787-95.997-52.684-99.531 52.05z" fill="#ffffff" data-original="#000000" style="" class=""/><path id="XMLID_269_" d="m476.558 117.411-97.892-48.139-95.594 48.58 93.015 46.041z" fill="#ffffff" data-original="#000000" style="" class=""/><path id="XMLID_268_" d="m250.129 134.592-92.13 46.819 92.769 40.942 90.552-42.235z" fill="#ffffff" data-original="#000000" style="" class=""/><path id="XMLID_258_" d="m265.768 365.354 96.91-45.266v-116.894l-96.91 45.265z" fill="#ffffff" data-original="#000000" style="" class=""/><path id="XMLID_257_" d="m392.677 339.194.001 104.144 98.089-44.801.001-105.148z" fill="#ffffff" data-original="#000000" style="" class=""/><path id="XMLID_256_" d="m138.217 319.819 97.55 45.534v-116.894l-97.55-45.534z" fill="#ffffff" data-original="#000000" style="" class=""/><path id="XMLID_255_" d="m265.768 501.536 96.91-44.465v-103.877l-96.911 45.266z" fill="#ffffff" data-original="#000000" style="" class=""/></g></g></svg>
