<svg width="62" height="62" viewBox="0 0 62 62" fill="none" xmlns="http://www.w3.org/2000/svg">
<circle cx="31" cy="31" r="31" fill="#EFF1F2"/>
<path fill-rule="evenodd" clip-rule="evenodd" d="M19.917 19.25C18.9505 19.25 18.167 20.0055 18.167 20.9375V23.1875C18.167 24.1195 18.9505 24.875 19.917 24.875H42.0837C43.0501 24.875 43.8337 24.1195 43.8337 23.1875V20.9375C43.8337 20.0055 43.0501 19.25 42.0837 19.25H19.917ZM21.6122 38.39L20.6101 27.2228C20.5511 26.5657 21.0883 26 21.7723 26H40.2283C40.9123 26 41.4496 26.5649 41.3907 27.222L40.3884 38.39C40.275 39.6532 39.1377 40.625 37.7725 40.625H24.2282C22.8629 40.625 21.7256 39.6532 21.6122 38.39ZM28.2545 30.1022C28.4823 29.8826 28.8517 29.8826 29.0795 30.1022L31.0003 31.9545L32.9211 30.1022C33.149 29.8826 33.5183 29.8826 33.7462 30.1022C33.9739 30.3219 33.9739 30.6781 33.7462 30.8978L31.8253 32.75L33.7462 34.6022C33.9739 34.8219 33.9739 35.1781 33.7462 35.3978C33.5183 35.6174 33.149 35.6174 32.9211 35.3978L31.0003 33.5455L29.0795 35.3978C28.8517 35.6174 28.4823 35.6174 28.2545 35.3978C28.0267 35.1781 28.0267 34.8219 28.2545 34.6022L30.1754 32.75L28.2545 30.8978C28.0267 30.6781 28.0267 30.3219 28.2545 30.1022Z" fill="#5F767D"/>
</svg>
