<svg width="45" height="45" viewBox="0 0 45 45" fill="none" xmlns="http://www.w3.org/2000/svg">
<g clip-path="url(#clip0)">
<path fill-rule="evenodd" clip-rule="evenodd" d="M11.25 11.25C5.03679 17.4632 5.03679 27.5368 11.25 33.75C17.4632 39.9632 27.5368 39.9632 33.75 33.75C39.9632 27.5368 39.9632 17.4632 33.75 11.25C27.5368 5.03679 17.4632 5.03681 11.25 11.25ZM18.2813 17.3437C18.0224 17.0849 17.6026 17.0849 17.3438 17.3437C17.0849 17.6026 17.0849 18.0224 17.3438 18.2812L21.5625 22.5L17.3438 26.7188C17.0849 26.9776 17.0849 27.3974 17.3438 27.6563C17.6026 27.9151 18.0224 27.9151 18.2813 27.6563L22.5 23.4375L26.7188 27.6563C26.9776 27.9151 27.3974 27.9151 27.6563 27.6563C27.9151 27.3974 27.9151 26.9776 27.6563 26.7188L23.4375 22.5L27.6563 18.2812C27.9151 18.0224 27.9151 17.6026 27.6563 17.3437C27.3974 17.0849 26.9776 17.0849 26.7188 17.3437L22.5 21.5625L18.2813 17.3437Z" fill="#5F767D"/>
</g>
<defs>
<clipPath id="clip0">
<rect width="31.8198" height="31.8198" fill="white" transform="translate(0 22.5) rotate(-45)"/>
</clipPath>
</defs>
</svg>
