<svg width="13" height="13" viewBox="0 0 13 13" fill="none" xmlns="http://www.w3.org/2000/svg">
<path d="M6.50016 9.20825C6.65364 9.20825 6.78237 9.15625 6.88637 9.05225C6.99037 8.94825 7.04219 8.8197 7.04183 8.66659C7.04147 8.51347 6.98947 8.38492 6.88583 8.28092C6.78219 8.17692 6.65364 8.12492 6.50016 8.12492C6.34669 8.12492 6.21814 8.17692 6.1145 8.28092C6.01086 8.38492 5.95886 8.51347 5.9585 8.66659C5.95814 8.8197 6.01014 8.94843 6.1145 9.05279C6.21886 9.15716 6.34741 9.20897 6.50016 9.20825ZM5.9585 7.04159H7.04183V3.79159H5.9585V7.04159ZM6.50016 11.9166C5.75086 11.9166 5.04669 11.7743 4.38766 11.4898C3.72864 11.2052 3.15537 10.8194 2.66787 10.3322C2.18037 9.84507 1.79452 9.27181 1.51033 8.61242C1.22614 7.95303 1.08386 7.24886 1.0835 6.49992C1.08314 5.75097 1.22541 5.04681 1.51033 4.38742C1.79525 3.72803 2.18109 3.15477 2.66787 2.66763C3.15465 2.18049 3.72791 1.79464 4.38766 1.51009C5.04741 1.22553 5.75158 1.08325 6.50016 1.08325C7.24875 1.08325 7.95291 1.22553 8.61266 1.51009C9.27241 1.79464 9.84568 2.18049 10.3325 2.66763C10.8192 3.15477 11.2053 3.72803 11.4905 4.38742C11.7758 5.04681 11.9179 5.75097 11.9168 6.49992C11.9157 7.24886 11.7735 7.95303 11.49 8.61242C11.2065 9.27181 10.8207 9.84507 10.3325 10.3322C9.84423 10.8194 9.27097 11.2054 8.61266 11.4903C7.95436 11.7752 7.25019 11.9173 6.50016 11.9166Z" fill="#F24E1E"/>
</svg>
