<svg width="9" height="9" viewBox="0 0 9 9" fill="none" xmlns="http://www.w3.org/2000/svg">
<g clip-path="url(#clip0_629_780)">
<path d="M4.5 6.375C4.60625 6.375 4.69538 6.339 4.76738 6.267C4.83938 6.195 4.87525 6.106 4.875 6C4.87475 5.894 4.83875 5.805 4.767 5.733C4.69525 5.661 4.60625 5.625 4.5 5.625C4.39375 5.625 4.30475 5.661 4.233 5.733C4.16125 5.805 4.12525 5.894 4.125 6C4.12475 6.106 4.16075 6.19512 4.233 6.26737C4.30525 6.33962 4.39425 6.3755 4.5 6.375ZM4.125 4.875H4.875V2.625H4.125V4.875ZM4.5 8.25C3.98125 8.25 3.49375 8.1515 3.0375 7.9545C2.58125 7.7575 2.18438 7.49038 1.84688 7.15313C1.50938 6.81588 1.24225 6.419 1.0455 5.9625C0.848751 5.506 0.75025 5.0185 0.75 4.5C0.74975 3.9815 0.848251 3.494 1.0455 3.0375C1.24275 2.581 1.50988 2.18413 1.84688 1.84688C2.18388 1.50963 2.58075 1.2425 3.0375 1.0455C3.49425 0.8485 3.98175 0.75 4.5 0.75C5.01825 0.75 5.50575 0.8485 5.9625 1.0455C6.41925 1.2425 6.81613 1.50963 7.15313 1.84688C7.49013 2.18413 7.75738 2.581 7.95488 3.0375C8.15238 3.494 8.25075 3.9815 8.25 4.5C8.24925 5.0185 8.15075 5.506 7.9545 5.9625C7.75825 6.419 7.49113 6.81588 7.15313 7.15313C6.81513 7.49038 6.41825 7.75762 5.9625 7.95487C5.50675 8.15212 5.01925 8.2505 4.5 8.25Z" fill="#B0B0B0"/>
</g>
<defs>
<clipPath id="clip0_629_780">
<rect width="9" height="9" fill="white"/>
</clipPath>
</defs>
</svg>
