<svg width="12" height="12" viewBox="0 0 12 12" fill="none" xmlns="http://www.w3.org/2000/svg">
<path d="M2 2C1.73478 2 1.48043 2.10536 1.29289 2.29289C1.10536 2.48043 1 2.73478 1 3V5C1.26522 5 1.51957 5.10536 1.70711 5.29289C1.89464 5.48043 2 5.73478 2 6C2 6.26522 1.89464 6.51957 1.70711 6.70711C1.51957 6.89464 1.26522 7 1 7V9C1 9.26522 1.10536 9.51957 1.29289 9.70711C1.48043 9.89464 1.73478 10 2 10H10C10.2652 10 10.5196 9.89464 10.7071 9.70711C10.8946 9.51957 11 9.26522 11 9V7C10.7348 7 10.4804 6.89464 10.2929 6.70711C10.1054 6.51957 10 6.26522 10 6C10 5.73478 10.1054 5.48043 10.2929 5.29289C10.4804 5.10536 10.7348 5 11 5V3C11 2.73478 10.8946 2.48043 10.7071 2.29289C10.5196 2.10536 10.2652 2 10 2H2ZM7.75 3.5L8.5 4.25L4.25 8.5L3.5 7.75L7.75 3.5ZM4.405 3.52C4.895 3.52 5.29 3.915 5.29 4.405C5.29 4.63972 5.19676 4.86482 5.03079 5.03079C4.86482 5.19676 4.63972 5.29 4.405 5.29C3.915 5.29 3.52 4.895 3.52 4.405C3.52 4.17028 3.61324 3.94518 3.77921 3.77921C3.94518 3.61324 4.17028 3.52 4.405 3.52ZM7.595 6.71C8.085 6.71 8.48 7.105 8.48 7.595C8.48 7.82972 8.38676 8.05482 8.22079 8.22079C8.05482 8.38676 7.82972 8.48 7.595 8.48C7.105 8.48 6.71 8.085 6.71 7.595C6.71 7.36028 6.80324 7.13518 6.96921 6.96921C7.13518 6.80324 7.36028 6.71 7.595 6.71Z" fill="#109204"/>
</svg>
