<svg width="12" height="11" viewBox="0 0 12 11" fill="none" xmlns="http://www.w3.org/2000/svg">
<path d="M0.377393 5.74089L2.55777 6.61567L8.8412 3.47375L5.05143 7.52634L10.4834 9.79348C10.5763 9.83078 10.6777 9.84702 10.7788 9.84083C10.88 9.83465 10.9781 9.80622 11.0648 9.75795C11.1515 9.70968 11.2242 9.64299 11.2768 9.56352C11.3294 9.48405 11.3604 9.39414 11.3671 9.30138L11.9987 0.617243C12.0057 0.516729 11.9841 0.416269 11.9359 0.325746C11.8877 0.235224 11.8147 0.15776 11.7239 0.100977C11.6332 0.0441936 11.5278 0.0100484 11.4183 0.00190115C11.3088 -0.00624613 11.1988 0.0118852 11.0993 0.0545111L0.361603 4.68605C0.252072 4.73368 0.159771 4.80915 0.0956779 4.90347C0.0315847 4.99779 -0.00160372 5.107 5.95902e-05 5.21811C0.0017229 5.32923 0.0381679 5.43756 0.10506 5.53024C0.171953 5.62291 0.266478 5.69603 0.377393 5.74089ZM3.78818 11L6.80483 9.65917L3.78818 8.36928V11Z" fill="black"/>
</svg>
