<svg width="17" height="17" viewBox="0 0 17 17" fill="none" xmlns="http://www.w3.org/2000/svg">
<path opacity="0.2" d="M13.8125 5.3125V11.6875H3.1875V5.3125H13.8125Z" fill="black"/>
<path d="M14.1883 12.0634L12.0633 14.1884C11.9636 14.2881 11.8284 14.3441 11.6874 14.3441C11.5465 14.3441 11.4113 14.2881 11.3116 14.1884C11.2119 14.0887 11.1559 13.9535 11.1559 13.8126C11.1559 13.6716 11.2119 13.5364 11.3116 13.4367L12.5301 12.2188H3.18743C3.04653 12.2188 2.91141 12.1628 2.81178 12.0632C2.71215 11.9636 2.65618 11.8284 2.65618 11.6876C2.65618 11.5467 2.71215 11.4115 2.81178 11.3119C2.91141 11.2123 3.04653 11.1563 3.18743 11.1563H12.5301L11.3116 9.93841C11.2119 9.83873 11.1559 9.70353 11.1559 9.56255C11.1559 9.42158 11.2119 9.28638 11.3116 9.18669C11.4113 9.08701 11.5465 9.03101 11.6874 9.03101C11.8284 9.03101 11.9636 9.08701 12.0633 9.18669L14.1883 11.3117C14.2377 11.361 14.2769 11.4196 14.3036 11.4841C14.3303 11.5486 14.3441 11.6177 14.3441 11.6876C14.3441 11.7574 14.3303 11.8265 14.3036 11.891C14.2769 11.9555 14.2377 12.0141 14.1883 12.0634ZM4.93657 7.81341C5.03625 7.91309 5.17146 7.9691 5.31243 7.9691C5.4534 7.9691 5.58861 7.91309 5.68829 7.81341C5.78797 7.71373 5.84398 7.57853 5.84398 7.43755C5.84398 7.29658 5.78797 7.16138 5.68829 7.06169L4.46973 5.8438H13.8124C13.9533 5.8438 14.0885 5.78783 14.1881 5.6882C14.2877 5.58857 14.3437 5.45345 14.3437 5.31255C14.3437 5.17165 14.2877 5.03653 14.1881 4.9369C14.0885 4.83727 13.9533 4.7813 13.8124 4.7813H4.46973L5.68829 3.56341C5.78797 3.46373 5.84398 3.32853 5.84398 3.18755C5.84398 3.04658 5.78797 2.91138 5.68829 2.81169C5.58861 2.71201 5.4534 2.65601 5.31243 2.65601C5.17146 2.65601 5.03625 2.71201 4.93657 2.81169L2.81157 4.93669C2.76218 4.98603 2.72299 5.04462 2.69626 5.10911C2.66952 5.17361 2.65576 5.24274 2.65576 5.31255C2.65576 5.38237 2.66952 5.4515 2.69626 5.51599C2.72299 5.58048 2.76218 5.63907 2.81157 5.68841L4.93657 7.81341Z" fill="black"/>
</svg>
