<svg width="48" height="48" viewBox="0 0 48 48" fill="none" xmlns="http://www.w3.org/2000/svg">
<path d="M29.8877 7.5C32.432 8.18283 34.7519 9.52285 36.6146 11.3856C38.4773 13.2483 39.8174 15.5682 40.5002 18.1125" stroke="#F76641" stroke-width="3" stroke-linecap="round" stroke-linejoin="round"/>
<path d="M17.3437 23.4001C18.8873 26.5876 21.4648 29.1585 24.6562 30.6938C24.8917 30.8053 25.1521 30.8535 25.4118 30.8338C25.6715 30.8141 25.9216 30.7271 26.1375 30.5813L30.825 27.4501C31.0321 27.3096 31.2714 27.2239 31.5206 27.2009C31.7698 27.178 32.0207 27.2185 32.25 27.3188L41.025 31.0876C41.3249 31.2124 41.5755 31.4323 41.7381 31.7135C41.9007 31.9947 41.9664 32.3216 41.925 32.6438C41.6469 34.8146 40.5873 36.8096 38.9446 38.2556C37.3018 39.7017 35.1885 40.4996 33 40.5001C26.237 40.5001 19.751 37.8135 14.9688 33.0313C10.1866 28.2491 7.5 21.7631 7.5 15.0001C7.50049 12.8116 8.2984 10.6982 9.74442 9.05548C11.1904 7.41274 13.1855 6.35318 15.3562 6.07506C15.6784 6.03367 16.0053 6.09935 16.2865 6.26198C16.5677 6.4246 16.7877 6.67516 16.9125 6.97506L20.6812 15.7688C20.7793 15.9945 20.8203 16.2408 20.8006 16.486C20.781 16.7312 20.7014 16.9679 20.5687 17.1751L17.4375 21.9376C17.2981 22.153 17.2163 22.4005 17.1999 22.6566C17.1834 22.9126 17.233 23.1686 17.3437 23.4001V23.4001Z" stroke="#F76641" stroke-width="3" stroke-linecap="round" stroke-linejoin="round"/>
<path d="M27.9746 14.625C29.2425 15.0247 30.3953 15.7242 31.3354 16.6643C32.2754 17.6043 32.9749 18.7571 33.3746 20.025" stroke="#F76641" stroke-width="3" stroke-linecap="round" stroke-linejoin="round"/>
</svg>
