<svg width="96" height="15" viewBox="0 0 96 15" fill="none" xmlns="http://www.w3.org/2000/svg">
<line x1="0.342529" y1="7.5" x2="95.2862" y2="7.5" stroke="#FF690F"/>
<path d="M35.806 7.68735L34.9194 5.2673L34.9156 5.25683L34.9156 5.25681C34.8046 4.94302 34.7971 4.60218 34.8945 4.28369C34.9917 3.96546 35.1875 3.68912 35.45 3.49126L35.45 3.49126C35.7121 3.29363 36.0282 3.18334 36.3537 3.17272C36.6791 3.1621 37.0016 3.25151 37.2758 3.43111L37.2839 3.4364L37.2838 3.43644L38.7482 4.41588L40.854 4.26673L39.7554 3.07489C39.5904 2.90032 39.4785 2.67972 39.4371 2.43899C39.3944 2.19135 39.429 1.93745 39.535 1.71104C39.6408 1.48491 39.8118 1.29874 40.0224 1.17371M35.806 7.68735L40.0224 1.17371M35.806 7.68735C35.8793 7.88958 36.003 8.06778 36.1633 8.20646L35.806 7.68735ZM40.0224 1.17371C40.2296 1.05067 40.4672 0.99136 40.7058 1.00102M40.0224 1.17371L40.7058 1.00102M40.7058 1.00102L42.2179 1.05188C42.4205 1.05406 42.6205 1.106 42.7998 1.20451L42.8064 1.20819L42.8131 1.21197L46.4453 3.28116L47.3658 3.80556L49.2696 3.67073C49.6567 3.63871 50.0467 3.68786 50.4138 3.81535L50.089 4.75047L50.4138 3.81536C50.7834 3.94373 51.1221 4.14889 51.4063 4.4183C51.4064 4.41837 51.4065 4.41845 51.4066 4.41853L53.5487 6.44482C53.8035 6.68244 53.9808 6.99339 54.053 7.3376L53.0744 7.54297L54.0531 7.33761C54.1258 7.68413 54.0876 8.04383 53.9448 8.36693C53.8021 8.68975 53.5632 8.95793 53.2642 9.13821C52.9681 9.3167 52.6258 9.40162 52.2824 9.38405C50.957 9.3298 49.119 9.25169 47.173 9.159L43.3079 13.3602C43.3076 13.3605 43.3073 13.3608 43.3071 13.3611C43.307 13.3612 43.3069 13.3613 43.3069 13.3613C43.0927 13.5943 42.8053 13.7426 42.4968 13.7856L42.493 13.7861L42.493 13.7861L41.0023 13.9883C41.0021 13.9883 41.0019 13.9883 41.0018 13.9884C40.7799 14.0187 40.5533 13.9895 40.3457 13.9029C40.1378 13.8161 39.9551 13.6743 39.8192 13.4899C39.6832 13.3053 39.5998 13.0858 39.5804 12.8547C39.5611 12.6242 39.6065 12.3938 39.7102 12.1888C39.7102 12.1888 39.7103 12.1888 39.7103 12.1887C39.7105 12.1882 39.7108 12.1876 39.7111 12.187L41.3942 8.85803C40.5106 8.80724 39.7005 8.75647 39.0102 8.70769C37.9664 8.63393 37.1277 8.56061 36.7496 8.49028L36.7371 8.48797L36.7248 8.48534C36.5184 8.44154 36.3249 8.34627 36.1633 8.20647L40.7058 1.00102ZM40.7319 12.0066C40.732 12.0066 40.732 12.0066 40.7321 12.0066L40.7319 12.0066Z" fill="#FF690F" stroke="white" stroke-width="2"/>
</svg>
