<svg width="45" height="45" viewBox="0 0 45 45" fill="none" xmlns="http://www.w3.org/2000/svg">
<path fill-rule="evenodd" clip-rule="evenodd" d="M10.3125 22.5C10.3125 15.769 15.769 10.3125 22.5 10.3125C29.2311 10.3125 34.6875 15.769 34.6875 22.5C34.6875 29.2311 29.2311 34.6875 22.5 34.6875C15.769 34.6875 10.3125 29.2311 10.3125 22.5ZM22.5 8.4375C14.7335 8.4375 8.4375 14.7335 8.4375 22.5C8.4375 30.2664 14.7335 36.5625 22.5 36.5625C26.0458 36.5625 29.2852 35.2502 31.7587 33.0846L36.837 38.163C37.2032 38.529 37.7968 38.529 38.163 38.163C38.529 37.7968 38.529 37.2032 38.163 36.837L33.0846 31.7587C35.2502 29.2852 36.5625 26.0458 36.5625 22.5C36.5625 14.7335 30.2664 8.4375 22.5 8.4375Z" fill="#5F767D"/>
</svg>
