<svg width="17" height="17" viewBox="0 0 17 17" fill="none" xmlns="http://www.w3.org/2000/svg">
<path opacity="0.5" d="M12.7266 4.64524L11.4304 3.34899C10.3353 2.25461 9.78847 1.70707 9.07801 1.50378C8.36755 1.29978 7.61318 1.47403 6.10514 1.82253L5.2353 2.02299C3.96597 2.31553 3.3313 2.46215 2.89639 2.89636C2.46218 3.33128 2.31555 3.96595 2.02301 5.23528L1.82184 6.10511C1.47405 7.61386 1.2998 8.36753 1.50309 9.07799C1.70709 9.78845 2.25464 10.3353 3.34901 11.4297L4.64526 12.7259C6.55068 14.632 7.50268 15.5833 8.68559 15.5833C9.86922 15.5833 10.8212 14.6313 12.7259 12.7266C14.6313 10.8212 15.5833 9.8692 15.5833 8.68557C15.5833 7.50265 14.6313 6.54995 12.7266 4.64524Z" fill="#545454"/>
<path d="M7.89581 10.149C7.4191 9.67301 7.42335 8.98876 7.7081 8.44688C7.63743 8.34481 7.60475 8.22121 7.61572 8.09754C7.62669 7.97387 7.68062 7.85796 7.76816 7.76992C7.8557 7.68188 7.9713 7.62727 8.0949 7.61559C8.2185 7.60391 8.34229 7.63589 8.44477 7.70597C8.6856 7.57847 8.94981 7.51047 9.21331 7.5133C9.35421 7.51462 9.48881 7.57185 9.58751 7.67241C9.68621 7.77296 9.74092 7.90861 9.7396 8.04951C9.73829 8.1904 9.68106 8.32501 9.5805 8.42371C9.47994 8.52241 9.34429 8.57712 9.2034 8.5758C9.03938 8.58186 8.88437 8.65236 8.77202 8.77201C8.4979 9.04613 8.57015 9.32097 8.64665 9.39817C8.72456 9.47538 8.99869 9.54692 9.27281 9.2728C9.82815 8.71747 10.7872 8.5333 11.4021 9.14742C11.8788 9.62413 11.8745 10.3084 11.5891 10.8503C11.6593 10.9524 11.6916 11.0758 11.6804 11.1992C11.6693 11.3226 11.6153 11.4382 11.5279 11.5261C11.4405 11.6139 11.3251 11.6684 11.2018 11.6802C11.0784 11.6919 10.9548 11.6602 10.8524 11.5905C10.5345 11.7648 10.1658 11.8229 9.80973 11.7548C9.74136 11.7408 9.67643 11.7134 9.61864 11.6742C9.56085 11.6351 9.51133 11.585 9.47292 11.5267C9.43451 11.4684 9.40795 11.4031 9.39476 11.3346C9.38158 11.2661 9.38202 11.1956 9.39606 11.1272C9.41011 11.0588 9.43748 10.9939 9.47662 10.9361C9.51576 10.8783 9.5659 10.8288 9.62418 10.7904C9.68246 10.752 9.74773 10.7254 9.81627 10.7122C9.88481 10.6991 9.95528 10.6995 10.0236 10.7136C10.149 10.7398 10.3516 10.6987 10.5251 10.5251C10.8 10.2503 10.7277 9.97618 10.6505 9.89897C10.5733 9.82176 10.2992 9.75022 10.0244 10.0243C9.46902 10.5797 8.50994 10.7638 7.89581 10.149ZM7.09823 7.29088C7.23354 7.1602 7.34146 7.00388 7.41571 6.83104C7.48995 6.6582 7.52903 6.47231 7.53067 6.2842C7.5323 6.0961 7.49646 5.90955 7.42523 5.73545C7.354 5.56134 7.2488 5.40317 7.11579 5.27016C6.98277 5.13714 6.8246 5.03195 6.6505 4.96072C6.47639 4.88949 6.28985 4.85364 6.10174 4.85528C5.91364 4.85691 5.72775 4.89599 5.55491 4.97024C5.38207 5.04449 5.22575 5.15241 5.09506 5.28772C4.83701 5.5549 4.69421 5.91276 4.69744 6.2842C4.70067 6.65565 4.84966 7.01096 5.11232 7.27363C5.37498 7.53629 5.7303 7.68528 6.10174 7.6885C6.47319 7.69173 6.83104 7.54894 7.09823 7.29088Z" fill="#545454"/>
</svg>
