<svg width="12" height="12" viewBox="0 0 12 12" fill="none" xmlns="http://www.w3.org/2000/svg">
<path opacity="0.5" d="M2.086 1.586C1.5 2.1715 1.5 3.1145 1.5 5V7C1.5 8.8855 1.5 9.8285 2.086 10.414C2.6715 11 3.6145 11 5.5 11H6.5C8.3855 11 9.3285 11 9.914 10.414C10.5 9.8285 10.5 8.8855 10.5 7V5C10.5 3.1145 10.5 2.1715 9.914 1.586C9.3285 1 8.3855 1 6.5 1H5.5C3.6145 1 2.6715 1 2.086 1.586Z" fill="#545454"/>
<path d="M3 6C3 5.293 3 4.9395 3.22 4.72C3.439 4.5 3.7925 4.5 4.5 4.5H7.5C8.207 4.5 8.5605 4.5 8.78 4.72C9 4.9395 9 5.293 9 6V8C9 8.707 9 9.0605 8.78 9.28C8.5605 9.5 8.207 9.5 7.5 9.5H4.5C3.793 9.5 3.4395 9.5 3.22 9.28C3 9.061 3 8.7075 3 8V6ZM3.5 2.625C3.40054 2.625 3.30516 2.66451 3.23483 2.73483C3.16451 2.80516 3.125 2.90054 3.125 3C3.125 3.09946 3.16451 3.19484 3.23483 3.26517C3.30516 3.33549 3.40054 3.375 3.5 3.375H6C6.09946 3.375 6.19484 3.33549 6.26516 3.26517C6.33549 3.19484 6.375 3.09946 6.375 3C6.375 2.90054 6.33549 2.80516 6.26516 2.73483C6.19484 2.66451 6.09946 2.625 6 2.625H3.5Z" fill="#545454"/>
</svg>
