<svg width="15" height="17" viewBox="0 0 15 17" fill="none" xmlns="http://www.w3.org/2000/svg">
<path fill-rule="evenodd" clip-rule="evenodd" d="M0.450226 13.7849V2.52612C0.450226 2.73941 0.546002 2.94396 0.716485 3.09478C0.886967 3.24559 1.11819 3.33032 1.35929 3.33032H12.2681C12.9914 3.33032 13.685 3.5845 14.1965 4.03695C14.7079 4.4894 14.9952 5.10305 14.9952 5.74291V13.7849C14.9952 14.4247 14.7079 15.0384 14.1965 15.4908C13.685 15.9433 12.9914 16.1974 12.2681 16.1974H3.17742C2.45412 16.1974 1.76045 15.9433 1.249 15.4908C0.737554 15.0384 0.450226 14.4247 0.450226 13.7849ZM4.31375 9.20577C4.31375 8.40595 4.67291 7.63889 5.31222 7.07333C5.95153 6.50777 6.81862 6.19004 7.72274 6.19004C8.62686 6.19004 9.49395 6.50777 10.1333 7.07333C10.7726 7.63889 11.1317 8.40595 11.1317 9.20577C11.1317 10.0056 10.7726 10.7727 10.1333 11.3382C9.49395 11.9038 8.62686 12.2215 7.72274 12.2215C6.81862 12.2215 5.95153 11.9038 5.31222 11.3382C4.67291 10.7727 4.31375 10.0056 4.31375 9.20577ZM5.22281 14.0309C5.22281 13.871 5.29464 13.7176 5.42251 13.6045C5.55037 13.4913 5.72379 13.4278 5.90461 13.4278H9.54087C9.72169 13.4278 9.89511 13.4913 10.023 13.6045C10.1508 13.7176 10.2227 13.871 10.2227 14.0309C10.2227 14.1909 10.1508 14.3443 10.023 14.4574C9.89511 14.5705 9.72169 14.6341 9.54087 14.6341H5.90461C5.72379 14.6341 5.55037 14.5705 5.42251 14.4574C5.29464 14.3443 5.22281 14.1909 5.22281 14.0309Z" fill="black"/>
<path opacity="0.5" d="M13.1771 1.96787V3.46769C12.8926 3.37923 12.5862 3.33098 12.2681 3.33098H1.35929C1.11819 3.33098 0.886967 3.24625 0.716485 3.09543C0.546002 2.94462 0.450226 2.74007 0.450226 2.52678V2.46888C0.450226 2.04024 0.806579 1.67675 1.28656 1.61643L11.1017 0.375558C11.3596 0.342949 11.6224 0.359746 11.8723 0.424813C12.1222 0.48988 12.3534 0.601697 12.5502 0.752691C12.747 0.903685 12.9049 1.09033 13.013 1.29999C13.1212 1.50964 13.1771 1.73741 13.1771 1.96787Z" fill="black"/>
<path d="M5.67737 9.20568C5.67737 8.72579 5.89286 8.26555 6.27645 7.92621C6.66004 7.58688 7.18029 7.39624 7.72276 7.39624C8.26523 7.39624 8.78549 7.58688 9.16907 7.92621C9.55266 8.26555 9.76816 8.72579 9.76816 9.20568C9.76816 9.68557 9.55266 10.1458 9.16907 10.4851C8.78549 10.8245 8.26523 11.0151 7.72276 11.0151C7.18029 11.0151 6.66004 10.8245 6.27645 10.4851C5.89286 10.1458 5.67737 9.68557 5.67737 9.20568Z" fill="black"/>
</svg>
